<svg width="372" height="105" viewBox="0 0 372 105" fill="none" xmlns="http://www.w3.org/2000/svg">
<path d="M41.0294 19.46H54.0778V61.4418C54.0778 66.3295 53.0304 70.4462 50.9357 73.7919C48.87 77.1377 46.0043 79.6543 42.3386 81.3417C38.7019 83.0291 34.5124 83.8728 29.7702 83.8728C25.028 83.8728 20.8094 83.0291 17.1146 81.3417C13.4488 79.6543 10.5685 77.1377 8.47382 73.7919C6.40818 70.4462 5.37537 66.3295 5.37537 61.4418V19.46H18.4674V61.4418C18.4674 64.2929 18.9184 66.6204 19.8203 68.4242C20.7221 70.228 22.0168 71.5517 23.7042 72.3954C25.4207 73.2392 27.4427 73.661 29.7702 73.661C32.1559 73.661 34.1779 73.2392 35.8362 72.3954C37.5236 71.5517 38.8037 70.228 39.6765 68.4242C40.5784 66.6204 41.0294 64.2929 41.0294 61.4418V19.46ZM76.3779 45.8622V83H63.8095V35.7814H75.5923L76.3779 45.8622ZM74.545 57.7324H71.1411C71.1411 54.2411 71.592 51.0991 72.4939 48.3061C73.3958 45.484 74.6614 43.0838 76.2906 41.1055C77.9198 39.098 79.8545 37.5706 82.0947 36.5233C84.364 35.4468 86.8951 34.9086 89.6881 34.9086C91.8992 34.9086 93.9212 35.2286 95.7541 35.8687C97.587 36.5087 99.158 37.527 100.467 38.9235C101.806 40.3199 102.824 42.1674 103.522 44.4658C104.249 46.7641 104.613 49.5717 104.613 52.8883V83H91.9574V52.8447C91.9574 50.7499 91.6665 49.1207 91.0846 47.957C90.5027 46.7932 89.6445 45.9786 88.5098 45.5131C87.4043 45.0185 86.0369 44.7712 84.4077 44.7712C82.7202 44.7712 81.251 45.1058 80 45.775C78.7781 46.4441 77.7598 47.3751 76.9452 48.5679C76.1597 49.7317 75.5633 51.0991 75.1559 52.6701C74.7486 54.2411 74.545 55.9286 74.545 57.7324ZM112.163 59.8707V58.9543C112.163 55.4922 112.657 52.3064 113.647 49.3971C114.636 46.4587 116.076 43.913 117.967 41.7601C119.858 39.6072 122.185 37.9343 124.949 36.7415C127.713 35.5195 130.884 34.9086 134.463 34.9086C138.041 34.9086 141.227 35.5195 144.02 36.7415C146.813 37.9343 149.155 39.6072 151.046 41.7601C152.966 43.913 154.421 46.4587 155.41 49.3971C156.399 52.3064 156.894 55.4922 156.894 58.9543V59.8707C156.894 63.3038 156.399 66.4895 155.41 69.4279C154.421 72.3373 152.966 74.8829 151.046 77.0649C149.155 79.2179 146.828 80.8907 144.064 82.0836C141.3 83.2764 138.129 83.8728 134.55 83.8728C130.972 83.8728 127.786 83.2764 124.993 82.0836C122.229 80.8907 119.887 79.2179 117.967 77.0649C116.076 74.8829 114.636 72.3373 113.647 69.4279C112.657 66.4895 112.163 63.3038 112.163 59.8707ZM124.731 58.9543V59.8707C124.731 61.8491 124.906 63.6965 125.255 65.413C125.604 67.1295 126.157 68.6424 126.913 69.9516C127.699 71.2317 128.717 72.2354 129.968 72.9628C131.219 73.6901 132.746 74.0538 134.55 74.0538C136.296 74.0538 137.794 73.6901 139.045 72.9628C140.296 72.2354 141.3 71.2317 142.056 69.9516C142.813 68.6424 143.365 67.1295 143.715 65.413C144.093 63.6965 144.282 61.8491 144.282 59.8707V58.9543C144.282 57.0341 144.093 55.2303 143.715 53.5429C143.365 51.8264 142.798 50.3135 142.013 49.0043C141.256 47.666 140.252 46.6187 139.001 45.8622C137.75 45.1058 136.238 44.7276 134.463 44.7276C132.688 44.7276 131.175 45.1058 129.924 45.8622C128.702 46.6187 127.699 47.666 126.913 49.0043C126.157 50.3135 125.604 51.8264 125.255 53.5429C124.906 55.2303 124.731 57.0341 124.731 58.9543Z" fill="white"/>
<g filter="url(#filter0_d_11_154)">
<path d="M177.9 60.3508H161.71V50.139H177.9C180.402 50.139 182.439 49.7317 184.01 48.9171C185.581 48.0733 186.73 46.9096 187.458 45.4258C188.185 43.9421 188.549 42.2692 188.549 40.4072C188.549 38.5162 188.185 36.756 187.458 35.1268C186.73 33.4975 185.581 32.1883 184.01 31.1992C182.439 30.21 180.402 29.7154 177.9 29.7154H166.248V83H153.156V19.46H177.9C182.875 19.46 187.138 20.3619 190.687 22.1656C194.265 23.9403 197 26.3987 198.891 29.5408C200.782 32.6829 201.728 36.276 201.728 40.3199C201.728 44.4221 200.782 47.9715 198.891 50.9681C197 53.9648 194.265 56.2777 190.687 57.9069C187.138 59.5362 182.875 60.3508 177.9 60.3508ZM223.242 35.7814V83H210.63V35.7814H223.242ZM209.845 23.4749C209.845 21.642 210.485 20.1291 211.765 18.9363C213.045 17.7434 214.762 17.147 216.915 17.147C219.038 17.147 220.74 17.7434 222.021 18.9363C223.33 20.1291 223.984 21.642 223.984 23.4749C223.984 25.3077 223.33 26.8206 222.021 28.0134C220.74 29.2063 219.038 29.8027 216.915 29.8027C214.762 29.8027 213.045 29.2063 211.765 28.0134C210.485 26.8206 209.845 25.3077 209.845 23.4749ZM271.203 73.181V83H235.331V73.181H271.203ZM270.505 43.0256L240.393 83H231.971V75.5375L261.951 35.7814H270.505V43.0256ZM266.053 35.7814V45.644H232.669V35.7814H266.053ZM316.676 73.181V83H280.804V73.181H316.676ZM315.978 43.0256L285.866 83H277.444V75.5375L307.424 35.7814H315.978V43.0256ZM311.526 35.7814V45.644H278.142V35.7814H311.526ZM350.061 72.3518V51.3173C350.061 49.8044 349.813 48.5097 349.319 47.4333C348.824 46.3277 348.053 45.4695 347.006 44.8585C345.988 44.2476 344.664 43.9421 343.035 43.9421C341.638 43.9421 340.431 44.1894 339.413 44.684C338.394 45.1495 337.609 45.8332 337.056 46.735C336.503 47.6078 336.227 48.6407 336.227 49.8335H323.658C323.658 47.826 324.124 45.9204 325.055 44.1166C325.986 42.3128 327.339 40.7273 329.113 39.3599C330.888 37.9634 332.997 36.8724 335.441 36.0869C337.914 35.3013 340.678 34.9086 343.733 34.9086C347.399 34.9086 350.657 35.5195 353.508 36.7415C356.359 37.9634 358.6 39.7963 360.229 42.2401C361.887 44.684 362.716 47.7388 362.716 51.4045V71.6099C362.716 74.1992 362.876 76.3231 363.196 77.9814C363.516 79.6106 363.982 81.0362 364.593 82.2581V83H351.894C351.283 81.7199 350.817 80.1198 350.497 78.1996C350.206 76.2503 350.061 74.3011 350.061 72.3518ZM351.719 54.2411L351.806 61.3545H344.78C343.122 61.3545 341.682 61.5436 340.46 61.9218C339.238 62.3 338.234 62.8383 337.449 63.5365C336.663 64.2056 336.081 64.9912 335.703 65.8931C335.354 66.795 335.179 67.7841 335.179 68.8606C335.179 69.9371 335.427 70.9117 335.921 71.7845C336.416 72.6282 337.129 73.2973 338.06 73.7919C338.991 74.2574 340.082 74.4902 341.333 74.4902C343.224 74.4902 344.868 74.112 346.264 73.3555C347.661 72.5991 348.737 71.6681 349.493 70.5626C350.279 69.457 350.686 68.4096 350.715 67.4205L354.032 72.7446C353.566 73.9374 352.926 75.1739 352.112 76.454C351.326 77.7341 350.323 78.9415 349.101 80.0761C347.879 81.1817 346.41 82.0981 344.693 82.8254C342.976 83.5237 340.94 83.8728 338.583 83.8728C335.587 83.8728 332.867 83.2764 330.423 82.0836C328.008 80.8616 326.088 79.1888 324.662 77.0649C323.266 74.912 322.567 72.4682 322.567 69.7334C322.567 67.2605 323.033 65.0639 323.964 63.1437C324.895 61.2236 326.262 59.6089 328.066 58.2997C329.899 56.9614 332.183 55.9577 334.918 55.2885C337.652 54.5903 340.824 54.2411 344.431 54.2411H351.719Z" fill="#7266FF"/>
</g>
<defs>
<filter id="filter0_d_11_154" x="144.156" y="7.14697" width="227.436" height="82.7258" filterUnits="userSpaceOnUse" color-interpolation-filters="sRGB">
<feFlood flood-opacity="0" result="BackgroundImageFix"/>
<feColorMatrix in="SourceAlpha" type="matrix" values="0 0 0 0 0 0 0 0 0 0 0 0 0 0 0 0 0 0 127 0" result="hardAlpha"/>
<feOffset dx="-1" dy="-2"/>
<feGaussianBlur stdDeviation="4"/>
<feComposite in2="hardAlpha" operator="out"/>
<feColorMatrix type="matrix" values="0 0 0 0 0 0 0 0 0 0 0 0 0 0 0 0 0 0 0.5 0"/>
<feBlend mode="normal" in2="BackgroundImageFix" result="effect1_dropShadow_11_154"/>
<feBlend mode="normal" in="SourceGraphic" in2="effect1_dropShadow_11_154" result="shape"/>
</filter>
</defs>
</svg>
